<svg xmlns="http://www.w3.org/2000/svg" viewBox="0 0 512 512" width="512" height="512">
  <defs>
    <linearGradient id="grad1" x1="0%" y1="0%" x2="100%" y2="100%">
      <stop offset="0%" style="stop-color:#00D4FF;stop-opacity:1" />
      <stop offset="100%" style="stop-color:#0066FF;stop-opacity:1" />
    </linearGradient>
    <linearGradient id="grad2" x1="0%" y1="0%" x2="100%" y2="100%">
      <stop offset="0%" style="stop-color:#FF6B35;stop-opacity:1" />
      <stop offset="100%" style="stop-color:#FF3366;stop-opacity:1" />
    </linearGradient>
    <filter id="shadow" x="-20%" y="-20%" width="140%" height="140%">
      <feDropShadow dx="0" dy="4" stdDeviation="8" flood-color="#000000" flood-opacity="0.3"/>
    </filter>
  </defs>
  <circle cx="256" cy="256" r="240" fill="url(#grad1)" filter="url(#shadow)"/>
  <circle cx="256" cy="256" r="200" fill="#0a0a1a" opacity="0.9"/>
  <path d="M256 80 L380 140 L380 260 C380 340 320 400 256 440 C192 400 132 340 132 260 L132 140 Z" 
        fill="none" stroke="url(#grad2)" stroke-width="8" stroke-linecap="round" stroke-linejoin="round"/>
  <path d="M180 180 L140 140 L120 160 L160 200 Z" fill="url(#grad2)"/>
  <path d="M170 210 L130 190 L115 205 L155 230 Z" fill="url(#grad2)"/>
  <path d="M165 240 L130 230 L120 245 L155 260 Z" fill="url(#grad2)"/>
  <path d="M332 180 L372 140 L392 160 L352 200 Z" fill="url(#grad2)"/>
  <path d="M342 210 L382 190 L397 205 L357 230 Z" fill="url(#grad2)"/>
  <path d="M347 240 L382 230 L392 245 L357 260 Z" fill="url(#grad2)"/>
  <path d="M200 300 L240 340 L312 260" fill="none" stroke="#00D4FF" stroke-width="12" stroke-linecap="round" stroke-linejoin="round"/>
  <line x1="170" y1="360" x2="342" y2="360" stroke="#00D4FF" stroke-width="4" stroke-linecap="round" opacity="0.6"/>
  <line x1="190" y1="380" x2="322" y2="380" stroke="#00D4FF" stroke-width="3" stroke-linecap="round" opacity="0.4"/>
  <text x="256" y="450" text-anchor="middle" font-family="Arial, sans-serif" font-size="42" font-weight="bold" fill="white">OmniClaw</text>
</svg>
